<svg xmlns="http://www.w3.org/2000/svg" viewBox="0 0 48 56" fill="none">
  <defs>
    <linearGradient id="g" x1="0%" y1="0%" x2="100%" y2="100%">
      <stop offset="0%"   stop-color="#3b82f6"/>
      <stop offset="100%" stop-color="#7c3aed"/>
    </linearGradient>
    <linearGradient id="shine" x1="0%" y1="0%" x2="60%" y2="60%">
      <stop offset="0%"   stop-color="#ffffff" stop-opacity="0.25"/>
      <stop offset="100%" stop-color="#ffffff" stop-opacity="0"/>
    </linearGradient>
  </defs>
  <path d="M24 2 L44 9.5 L44 28 C44 43 34 51.5 24 54 C14 51.5 4 43 4 28 L4 9.5 Z" fill="url(#g)"/>
  <path d="M24 2 L44 9.5 L44 28 C44 43 34 51.5 24 54 C14 51.5 4 43 4 28 L4 9.5 Z" fill="url(#shine)"/>
  <path d="M24 5.5 L41.5 12.5 L41.5 28 C41.5 41 32.5 49 24 51.5 C15.5 49 6.5 41 6.5 28 L6.5 12.5 Z" stroke="rgba(255,255,255,0.15)" stroke-width="0.8" fill="none"/>
  <path d="M15.5 23 L24 37 L32.5 23" stroke="white" stroke-width="5" stroke-linecap="round" stroke-linejoin="round"/>
</svg>
